<?xml version="1.0" ?><svg viewBox="0 0 64 64" xmlns="http://www.w3.org/2000/svg"><g id="Creative_solution"><path d="M35.5749,29.933a1.35,1.35,0,0,0,1.35-1.35c0-1.3349.335-3.5752,2.5743-3.5752s2.5752,2.24,2.5752,3.5752a1.35,1.35,0,0,0,1.35,1.35h6.4892a1.35,1.35,0,0,0,1.35-1.35V9.1957a2.7923,2.7923,0,0,0-2.79-2.79H44.6941c-.4082-3.0908-2.3565-5.0234-5.1953-5.0234s-4.7862,1.9326-5.1944,5.0234H9.698a2.7924,2.7924,0,0,0-2.79,2.79v24.62c-3.0332.4365-4.9248,2.374-4.9248,5.1816s1.8916,4.7441,4.9248,5.1807v3.7929a2.7924,2.7924,0,0,0,2.79,2.79H27.6443a2.7924,2.7924,0,0,0,2.79-2.79V29.933ZM34.58,9.1049a1.3853,1.3853,0,0,0,.292-.0312c.0772-.0069.1826-.0137.2891-.0205.4824-.0323,1.7636-.1162,1.7636-1.3975,0-1.335.335-3.5742,2.5743-3.5742S42.074,6.3207,42.074,7.6557c0,1.28,1.2812,1.3652,1.7636,1.3975.1055.0068.21.0136.2871.0195a1.3292,1.3292,0,0,0,.294.0322h4.0537a.09.09,0,0,1,.0908.0908V27.2338H44.68c-.4365-3.0332-2.374-4.9248-5.1816-4.9248s-4.7442,1.8916-5.1807,4.9248H30.4343V21.6293a1.3492,1.3492,0,0,0-1.3183-1.35c-1.5928-.0371-3.4913-.5127-3.4913-2.5693s1.8985-2.5322,3.4913-2.5693a1.3493,1.3493,0,0,0,1.3183-1.35V9.1049ZM27.7351,47.9711a.0913.0913,0,0,1-.0908.0909H9.698a.0913.0913,0,0,1-.0908-.0909v-5.05a1.35,1.35,0,0,0-1.35-1.35c-1.335,0-3.5752-.3349-3.5752-2.5742s2.24-2.5752,3.5752-2.5752a1.35,1.35,0,0,0,1.35-1.35v-5.14H13.49c.4365,3.0333,2.374,4.9239,5.1816,4.9239s4.7442-1.8906,5.1807-4.9239h3.8828Z"/><path d="M58.5759,53.1733a1.3486,1.3486,0,0,0-1.35-1.3447H57.22a5.1456,5.1456,0,0,1-2.835-.73,2.3432,2.3432,0,0,1-.96-2.03v-.001c-.0117-2.416,2.3516-2.789,3.7618-2.7959a1.3482,1.3482,0,0,0,1.3427-1.3545l-.0234-5.9238a1.35,1.35,0,0,0-1.35-1.3447h-.0049l-5.2334.0205A6.5422,6.5422,0,0,0,50.8,34.7543a4.8024,4.8024,0,0,0-4.0556-1.9814h-.03a4.8024,4.8024,0,0,0-4.0693,2.0244,6.5632,6.5632,0,0,0-1.09,2.9268l-5.23.02A1.3488,1.3488,0,0,0,34.9792,39.1l.0889,19.3887a2.789,2.789,0,0,0,2.7891,2.7764h.0136l17.9483-.083A2.792,2.792,0,0,0,58.5954,58.38Z"/></g></svg>